{"title":"The Replacement Killers (1998) 720p BRRip HEVC x265 [Dual-Audio]","uid":12010591,"size":1045168153,"categoryP":"video","categoryS":"movies","magnet":"?xt=urn:btih:9c0db7e597c10157337fec3bfd5b97930240db2b&amp;dn=The+Replacement+Killers+%281998%29+720p+BRRip+HEVC+x265+%5BDual-Audio%5D&amp;tr=udp%3A%2F%2Ftracker.openbittorrent.com%3A80&amp;tr=udp%3A%2F%2Fopen.demonii.com%3A1337&amp;tr=udp%3A%2F%2Ftracker.coppersurfer.tk%3A6969&amp;tr=udp%3A%2F%2Fexodus.desync.com%3A6969","seeders":2,"leechers":2,"uploader":"praneet_gupta777","files":3,"time":1434103170,"description":"[center]\n[b][size=7]The Replacement Killers (1998) 720p BRRip HEVC x265 [Dual-Audio][English 5.1+Hindi 2.0] [PKG][/size][/b]\n\n\n\n\n\n[img]http://extraimago.com/images/2015/06/11/The-Replacement-Killers-1998-Front-Cover-2954bcbc6.jpg[/img]\n\n\n[img]http://extraimago.com/images/2015/06/11/Untitled.png[/img]\n\n\n\n[img]http://img9.uploadhouse.com/fileuploads/15981/15981250a2a3770f9f004bcdf00afac92833ebdb.png[/img]\n\n\n[quote]\n\n\nGeneral\nUnique ID                   : 179130976717493943912350961445730686247 (0x86C35F0724CEC7788D642A0387429527)\nComplete name               : G:The Replacement Killers (1998) 720p BRRip HEVC x265 [Dual-Audio][English 5.1+Hindi 2.0] [PKG]The Replacement Killers (1998) 720p BRRip HEVC x265 [Dual-Audio][English 5.1+Hindi 2.0] [PKG].mkv\nFormat                      : Matroska\nFormat version              : Version 2\nFile size                   : 992 MiB\nDuration                    : 1h 36mn\nOverall bit rate            : 1 443 Kbps\nEncoded date                : UTC 2015-06-11 10:24:22\nWriting application         : mkvmerge v7.7.0 ('Six Voices') 32bit built on Feb 28 2015 23:23:00\nWriting library             : libebml v1.3.1 + libmatroska v1.4.2\n_STATISTICS_WRITING_APP     : mkvmerge v7.7.0 ('Six Voices') 32bit built on Feb 28 2015 23:23:00\n_STATISTICS_WRITING_DATE_UT : 2015-06-11 10:24:22\n_STATISTICS_TAGS            : BPS DURATION NUMBER_OF_FRAMES NUMBER_OF_BYTES\nDURATION                    : 01:36:07.840000000\nNUMBER_OF_FRAMES            : 180245\nNUMBER_OF_BYTES             : 115356800\n\nVideo\nID                          : 1\nFormat                      : HEVC\nFormat/Info                 : High Efficiency Video Coding\nCodec ID                    : V_MPEGH/ISO/HEVC\nDuration                    : 1h 36mn\nBit rate                    : 1 094 Kbps\nWidth                       : 1 280 pixels\nHeight                      : 536 pixels\nDisplay aspect ratio        : 2.40:1\nFrame rate mode             : Constant\nFrame rate                  : 23.976 fps\nBits/(Pixel*Frame)          : 0.067\nStream size                 : 752 MiB (76%)\nDefault                     : Yes\nForced                      : No\n\nAudio #1\nID                          : 2\nFormat                      : AC-3\nFormat/Info                 : Audio Coding 3\nMode extension              : CM (complete main)\nFormat settings, Endianness : Big\nCodec ID                    : A_AC3\nDuration                    : 1h 36mn\nBit rate mode               : Constant\nBit rate                    : 160 Kbps\nChannel(s)                  : 2 channels\nChannel positions           : Front: L R\nSampling rate               : 48.0 KHz\nBit depth                   : 16 bits\nCompression mode            : Lossy\nStream size                 : 110 MiB (11%)\nLanguage                    : Hindi\nDefault                     : Yes\nForced                      : No\n\nAudio #2\nID                          : 3\nFormat                      : AC-3\nFormat/Info                 : Audio Coding 3\nMode extension              : CM (complete main)\nFormat settings, Endianness : Big\nCodec ID                    : A_AC3\nDuration                    : 1h 36mn\nBit rate mode               : Constant\nBit rate                    : 160 Kbps\nChannel(s)                  : 6 channels\nChannel positions           : Front: L C R, Side: L R, LFE\nSampling rate               : 48.0 KHz\nBit depth                   : 16 bits\nCompression mode            : Lossy\nStream size                 : 110 MiB (11%)\nLanguage                    : English\nDefault                     : No\nForced                      : No\n\nMenu\n00:00:00.000                : en:00:00:00.000\n00:07:19.147                : en:00:07:19.147\n00:12:34.920                : en:00:12:34.920\n00:17:15.409                : en:00:17:15.409\n00:27:12.797                : en:00:27:12.797\n00:31:06.948                : en:00:31:06.948\n00:36:18.551                : en:00:36:18.551\n00:44:57.194                : en:00:44:57.194\n00:51:35.258                : en:00:51:35.258\n00:54:21.967                : en:00:54:21.967\n01:02:23.239                : en:01:02:23.239\n01:09:23.200                : en:01:09:23.200\n01:14:33.969                : en:01:14:33.969\n01:18:32.791                : en:01:18:32.791\n01:25:00.345                : en:01:25:00.345\n01:30:51.821                : en:01:30:51.821\n\n\n[color=navy][size=6][b]SAMPLE WITHIN TORRENT[/b][/size][/color]\n\n\n\n\n\n[img]http://icons.iconarchive.com/icons/tribalmarkings/colorflow/256/screenshots-icon.png[/img]\n\n\n\n[img]http://extraimago.com/images/2015/06/11/vlcsnap-2015-06-11-16h41m57s47.png[/img]\n\n[img]http://extraimago.com/images/2015/06/11/vlcsnap-2015-06-11-16h53m45s217.png[/img]\n\n[img]http://extraimago.com/images/2015/06/11/vlcsnap-2015-06-11-16h44m06s45.png[/img]\n\n[img]http://extraimago.com/images/2015/06/11/vlcsnap-2015-06-11-16h53m53s42.png[/img]\n\n[img]http://extraimago.com/images/2015/06/11/vlcsnap-2015-06-11-16h47m06s62.png[/img]\n\n[img]http://extraimago.com/images/2015/06/11/vlcsnap-2015-06-11-16h43m55s187.png[/img]\n\n[img]http://extraimago.com/images/2015/06/11/vlcsnap-2015-06-11-16h54m02s118.png[/img]\n\n[img]http://extraimago.com/images/2015/06/11/TheReplacementKillers1998720pBRRipHEVCx265Dual-AudioEnglish5.1Hindi2.0PKG.mkv_thumbs_2015.06.11_16.40.50.jpg[/img]\n\n\n\n\n[b]Use a reputed media player that can play H.265 (HEVC : High Efficiency Video Coding) Video support.\nMedia Player Classic - Home Cinema and MPC-BE are recommended!.. VLC is OKay, but MPC variants are preferred.\nVLC and players like latest GOM, KMP/PotP with LAV can play HEVC.\n\nAnd also use latest K-Lite Codec Pack.\n\nIn Mobile, Android, Tabs, use a media player like VLC Player, MX Player... that can play H.265 :]\nFor more info, read the How_to_Play_ file inside the torrent.\n\n\nBe aware that all HEVC rips will not play on any stand-alone device. You can only watch this on a computer or on devices which have HEVC support.\nBe sure that you have the latest versions of VLC or Media Player Classic or SMPlayer. Earlier versions may not work[/b]\n\n\n\n[/center]","torrent":{"xt":"urn:btih:9c0db7e597c10157337fec3bfd5b97930240db2b","amp;dn":"The+Replacement+Killers+%281998%29+720p+BRRip+HEVC+x265+%5BDual-Audio%5D","amp;tr":["udp%3A%2F%2Ftracker.openbittorrent.com%3A80","udp%3A%2F%2Fopen.demonii.com%3A1337","udp%3A%2F%2Ftracker.coppersurfer.tk%3A6969","udp%3A%2F%2Fexodus.desync.com%3A6969"],"infoHash":"9c0db7e597c10157337fec3bfd5b97930240db2b","infoHashBuffer":{"type":"Buffer","data":[156,13,183,229,151,193,1,87,51,127,236,59,253,91,151,147,2,64,219,43]},"announce":[],"urlList":[]}}